<svg width="169" height="169" viewBox="0 0 169 169" fill="none" xmlns="http://www.w3.org/2000/svg">
<path opacity="0.4" d="M74.0312 4.51868C79.81 -0.422568 89.2737 -0.422568 95.1362 4.51868L108.369 15.9087C110.881 18.0862 115.571 19.8449 118.921 19.8449H133.159C142.036 19.8449 149.323 27.1312 149.323 36.0087V50.2462C149.323 53.5124 151.081 58.2862 153.259 60.7987L164.649 74.0312C169.59 79.8099 169.59 89.2737 164.649 95.1362L153.259 108.369C151.081 110.881 149.323 115.571 149.323 118.921V133.159C149.323 142.036 142.036 149.322 133.159 149.322H118.921C115.655 149.322 110.881 151.081 108.369 153.259L95.1362 164.649C89.3575 169.59 79.8937 169.59 74.0312 164.649L60.7987 153.259C58.2862 151.081 53.5962 149.322 50.2462 149.322H35.7575C26.88 149.322 19.5937 142.036 19.5937 133.159V118.837C19.5937 115.571 17.835 110.881 15.7412 108.369L4.435 95.0524C-0.422505 89.2737 -0.422505 79.8937 4.435 74.1149L15.7412 60.7987C17.835 58.2862 19.5937 53.5962 19.5937 50.3299V35.9249C19.5937 27.0474 26.88 19.7612 35.7575 19.7612H50.2462C53.5125 19.7612 58.2862 18.0024 60.7987 15.8249L74.0312 4.51868Z" fill="#22C24F"/>
<path d="M74.3662 111.049C72.6912 111.049 71.0999 110.379 69.9274 109.206L49.6599 88.9387C47.2312 86.51 47.2312 82.49 49.6599 80.0612C52.0887 77.6325 56.1087 77.6325 58.5374 80.0612L74.3662 95.89L110.379 59.8775C112.807 57.4487 116.827 57.4487 119.256 59.8775C121.685 62.3062 121.685 66.3262 119.256 68.755L78.8049 109.206C77.6324 110.379 76.0412 111.049 74.3662 111.049Z" fill="#22C24F"/>
</svg>
