<svg width="100" height="100" viewBox="0 0 100 100" fill="none" xmlns="http://www.w3.org/2000/svg">
<path opacity="0.4" d="M50 76.7502C54.5011 76.7502 58.15 73.1013 58.15 68.6002C58.15 64.0991 54.5011 60.4502 50 60.4502C45.4989 60.4502 41.85 64.0991 41.85 68.6002C41.85 73.1013 45.4989 76.7502 50 76.7502Z" fill="#F7931E"/>
<path d="M73.25 37.2002H26.75C6.25 37.2002 0 43.4502 0 63.9502V73.2502C0 93.7502 6.25 100 26.75 100H73.25C93.75 100 100 93.7502 100 73.2502V63.9502C100 43.4502 93.75 37.2002 73.25 37.2002ZM50 83.7002C41.65 83.7002 34.9 76.9002 34.9 68.6002C34.9 60.3002 41.65 53.5002 50 53.5002C58.35 53.5002 65.1 60.3002 65.1 68.6002C65.1 76.9002 58.35 83.7002 50 83.7002Z" fill="#F7931E"/>
<path opacity="0.4" d="M25.6 37.25V31.4C25.6 16.75 29.75 7 50 7C70.25 7 74.4 16.75 74.4 31.4V37.25C76.95 37.3 79.25 37.4 81.4 37.7V31.4C81.4 17.9 78.15 0 50 0C21.85 0 18.6 17.9 18.6 31.4V37.65C20.7 37.4 23.05 37.25 25.6 37.25Z" fill="#F7931E"/>
</svg>
