<svg width="105" height="105" viewBox="0 0 105 105" fill="none" xmlns="http://www.w3.org/2000/svg">
<path d="M73.25 96.0001V97.45C65.85 102.2 57 105 47.5 105C37.85 105 28.85 102.1 21.35 97.15V96.0001C21.35 84.3501 33 74.8499 47.3 74.8499C61.65 74.8499 73.25 84.3501 73.25 96.0001Z" fill="#12A9E7"/>
<path opacity="0.4" d="M95 57.5C95 74.25 86.35 88.95 73.25 97.45V96.0001C73.25 84.3501 61.65 74.8499 47.3 74.8499C33 74.8499 21.35 84.3501 21.35 96.0001V97.15C8.5 88.65 0 74.1 0 57.5C0 31.25 21.25 10 47.5 10C54.05 10 60.3 11.3 66 13.7C65.35 15.7 65 17.8 65 20C65 23.75 66.05 27.3 67.9 30.3C68.9 32 70.2 33.5499 71.7 34.8499C75.2 38.0499 79.85 40 85 40C87.2 40 89.3 39.6499 91.25 38.9499C93.65 44.6499 95 50.95 95 57.5Z" fill="#12A9E7"/>
<path d="M99.85 6.65009C96.25 2.55009 90.9 0 85 0C79.4 0 74.3 2.30011 70.65 6.05011C68.55 8.20011 66.95 10.8 66 13.7C65.35 15.7 65 17.8 65 20C65 23.75 66.05 27.3 67.9 30.3C68.9 32 70.2 33.5499 71.7 34.8499C75.2 38.0499 79.85 40 85 40C87.2 40 89.3 39.6499 91.25 38.9499C95.85 37.4999 99.7 34.35 102.1 30.3C103.15 28.6 103.95 26.65 104.4 24.65C104.8 23.15 105 21.6 105 20C105 14.9 103.05 10.2001 99.85 6.65009ZM92.45 23.6499H88.75V27.55C88.75 29.6 87.05 31.3 85 31.3C82.95 31.3 81.25 29.6 81.25 27.55V23.6499H77.55C75.5 23.6499 73.8 21.9499 73.8 19.8999C73.8 17.8499 75.5 16.1499 77.55 16.1499H81.25V12.6001C81.25 10.5501 82.95 8.8501 85 8.8501C87.05 8.8501 88.75 10.5501 88.75 12.6001V16.1499H92.45C94.5 16.1499 96.2 17.8499 96.2 19.8999C96.2 21.9499 94.55 23.6499 92.45 23.6499Z" fill="#12A9E7"/>
<path d="M47.3 68.6498C55.0596 68.6498 61.35 62.3594 61.35 54.5998C61.35 46.8402 55.0596 40.5498 47.3 40.5498C39.5404 40.5498 33.25 46.8402 33.25 54.5998C33.25 62.3594 39.5404 68.6498 47.3 68.6498Z" fill="#12A9E7"/>
</svg>
