<svg width="75" height="75" viewBox="0 0 75 75" fill="none" xmlns="http://www.w3.org/2000/svg">
<circle cx="37.5" cy="37.5" r="37.5" fill="#F0F0F0" fill-opacity="0.8"/>
<path fill-rule="evenodd" clip-rule="evenodd" d="M34.2406 59.896L34.8023 58.9473C35.7023 57.4269 36.1523 56.6665 36.8691 56.2425C37.5861 55.8184 38.521 55.7884 40.3912 55.7286C42.1448 55.6727 43.3234 55.5195 44.331 55.1022C46.4527 54.2233 48.1383 52.5377 49.017 50.4162C49.6763 48.8249 49.6763 46.8077 49.6763 42.7732V41.0415C49.6763 35.3728 49.6763 32.5384 48.4002 30.4563C47.6862 29.2912 46.7067 28.3117 45.5417 27.5977C43.4596 26.3218 40.6251 26.3218 34.9565 26.3218H29.7613C24.0926 26.3218 21.2583 26.3218 19.1761 27.5977C18.0111 28.3117 17.0315 29.2912 16.3176 30.4563C15.0416 32.5384 15.0416 35.3728 15.0416 41.0415V42.7732C15.0416 46.8077 15.0416 48.8249 15.7007 50.4162C16.5795 52.5377 18.2651 54.2233 20.3868 55.1022C21.3944 55.5195 22.573 55.6727 24.3265 55.7286C26.1966 55.7884 27.1317 55.8184 27.8486 56.2425C28.5654 56.6665 29.0154 57.4269 29.9155 58.9473L30.477 59.896C31.3138 61.3097 33.404 61.3097 34.2406 59.896ZM39.9353 43.6391C41.1307 43.6391 42.0998 42.6699 42.0998 41.4743C42.0998 40.2789 41.1307 39.3097 39.9353 39.3097C38.7397 39.3097 37.7705 40.2789 37.7705 41.4743C37.7705 42.6699 38.7397 43.6391 39.9353 43.6391ZM34.5236 41.4743C34.5236 42.6699 33.5544 43.6391 32.3589 43.6391C31.1634 43.6391 30.1942 42.6699 30.1942 41.4743C30.1942 40.2789 31.1634 39.3097 32.3589 39.3097C33.5544 39.3097 34.5236 40.2789 34.5236 41.4743ZM24.7826 43.6391C25.9781 43.6391 26.9473 42.6699 26.9473 41.4743C26.9473 40.2789 25.9781 39.3097 24.7826 39.3097C23.5871 39.3097 22.6179 40.2789 22.6179 41.4743C22.6179 42.6699 23.5871 43.6391 24.7826 43.6391Z" fill="#292D32"/>
<path opacity="0.5" d="M44.6173 16.0417C47.2039 16.0417 49.2607 16.0417 50.9103 16.1986C52.6016 16.3594 54.0318 16.6965 55.3058 17.4772C56.6166 18.2804 57.7185 19.3824 58.5217 20.6931C59.3024 21.9671 59.6395 23.3972 59.8004 25.0886C59.9572 26.7382 59.9572 28.7952 59.9572 31.3817V33.1482C59.9572 34.989 59.9572 36.4533 59.8761 37.6405C59.7932 38.8553 59.6203 39.8982 59.2156 40.8749C58.227 43.2619 56.3307 45.1582 53.9438 46.1467C53.8842 46.1714 53.8242 46.1953 53.764 46.2184C53.4759 46.3284 53.2288 46.423 53.0122 46.4932H49.6433C49.6763 45.4744 49.6763 44.2611 49.6763 42.7733V41.0415C49.6763 35.3729 49.6763 32.5385 48.4003 30.4564C47.6863 29.2913 46.7067 28.3118 45.5418 27.5978C43.4597 26.3219 40.6252 26.3219 34.9565 26.3219H29.7614C27.7495 26.3219 26.0947 26.3219 24.7037 26.3789V23.0093C24.7705 22.7779 24.862 22.5126 24.9694 22.2013C25.1521 21.6717 25.3829 21.1708 25.6757 20.6931C26.4789 19.3824 27.5809 18.2804 28.8916 17.4772C30.1655 16.6965 31.5956 16.3594 33.2871 16.1986C34.9367 16.0417 36.9935 16.0417 39.5801 16.0417H44.6173Z" fill="#292D32"/>
</svg>
