<svg width="98" height="108" viewBox="0 0 98 108" fill="none" xmlns="http://www.w3.org/2000/svg">
<path d="M94.3501 20.15C86.3001 19.35 78.2501 18.75 70.1501 18.3V18.25L69.0501 11.75C68.3001 7.15 67.2001 0.25 55.5001 0.25H42.4001C30.7501 0.25 29.6501 6.85 28.8501 11.7L27.8001 18.1C23.1501 18.4 18.5001 18.7 13.8501 19.15L3.65006 20.15C1.55006 20.35 0.0500553 22.2 0.250055 24.25C0.450055 26.3 2.25005 27.8 4.35005 27.6L14.5501 26.6C40.7501 24 67.1501 25 93.6501 27.65C93.8001 27.65 93.9001 27.65 94.0501 27.65C95.9501 27.65 97.6001 26.2 97.8001 24.25C97.9501 22.2 96.4501 20.35 94.3501 20.15Z" fill="#E73F3F"/>
<path opacity="0.3991" d="M85.15 34.7C83.95 33.45 82.3 32.75 80.6 32.75H17.4C15.7 32.75 14 33.45 12.85 34.7C11.7 35.95 11.05 37.65 11.15 39.4L14.25 90.7C14.8 98.3 15.5 107.8 32.95 107.8H65.05C82.5 107.8 83.2 98.35 83.75 90.7L86.85 39.45C86.95 37.65 86.3 35.95 85.15 34.7Z" fill="#E73F3F"/>
<path fill-rule="evenodd" clip-rule="evenodd" d="M36.9 79C36.9 76.9289 38.579 75.25 40.65 75.25H57.3C59.3711 75.25 61.05 76.9289 61.05 79C61.05 81.0711 59.3711 82.75 57.3 82.75H40.65C38.579 82.75 36.9 81.0711 36.9 79Z" fill="#E73F3F"/>
<path fill-rule="evenodd" clip-rule="evenodd" d="M32.75 59C32.75 56.9289 34.4289 55.25 36.5 55.25H61.5C63.5711 55.25 65.25 56.9289 65.25 59C65.25 61.0711 63.5711 62.75 61.5 62.75H36.5C34.4289 62.75 32.75 61.0711 32.75 59Z" fill="#E73F3F"/>
</svg>
