<svg width="12" height="12" viewBox="0 0 12 12" fill="none" xmlns="http://www.w3.org/2000/svg">
<path d="M6 6C7.38071 6 8.5 4.88071 8.5 3.5C8.5 2.11929 7.38071 1 6 1C4.61929 1 3.5 2.11929 3.5 3.5C3.5 4.88071 4.61929 6 6 6Z" stroke="#2F5CFC" stroke-linecap="round" stroke-linejoin="round"/>
<path d="M9.60503 7.87001L7.83501 9.64003C7.76501 9.71003 7.70002 9.84001 7.68502 9.93501L7.59002 10.61C7.55502 10.855 7.72502 11.025 7.97002 10.99L8.64501 10.895C8.74001 10.88 8.87502 10.815 8.94002 10.745L10.71 8.97502C11.015 8.67002 11.16 8.315 10.71 7.865C10.265 7.42 9.91003 7.56501 9.60503 7.87001Z" stroke="#2F5CFC" stroke-miterlimit="10" stroke-linecap="round" stroke-linejoin="round"/>
<path d="M9.3501 8.125C9.5001 8.665 9.92008 9.08499 10.4601 9.23499" stroke="#2F5CFC" stroke-miterlimit="10" stroke-linecap="round" stroke-linejoin="round"/>
<path d="M1.70508 11C1.70508 9.065 3.63009 7.5 6.00009 7.5C6.52009 7.5 7.02008 7.575 7.48508 7.715" stroke="#2F5CFC" stroke-linecap="round" stroke-linejoin="round"/>
</svg>
