<svg width="75" height="75" viewBox="0 0 75 75" fill="none" xmlns="http://www.w3.org/2000/svg">
<circle cx="37.5" cy="37.5" r="37.5" fill="#F0F0F0" fill-opacity="0.8"/>
<path d="M58.0001 25C58.0001 28.3137 55.3139 31 52.0001 31C48.6863 31 46.0001 28.3137 46.0001 25C46.0001 21.6863 48.6863 19 52.0001 19C55.3139 19 58.0001 21.6863 58.0001 25Z" fill="#292D32"/>
<path opacity="0.5" d="M45.2723 19.0219C44.0223 19 42.6103 19 41.0001 19H35.0001C28.4533 19 25.1798 19 22.7751 20.4736C21.4296 21.2982 20.2983 22.4295 19.4737 23.775C18.0001 26.1797 18.0001 29.4531 18.0001 36V38C18.0001 42.6594 18.0001 44.9892 18.7613 46.8268C19.7763 49.2772 21.723 51.2238 24.1733 52.2388C25.4939 52.7858 27.0686 52.9396 29.5793 52.983C31.28 53.0122 32.1303 53.0268 32.8057 53.4196C33.4811 53.8126 33.9016 54.5228 34.7425 55.9436L35.8267 57.7754C36.7931 59.408 39.2071 59.408 40.1735 57.7754L41.2577 55.9436C42.0985 54.5228 42.5191 53.8124 43.1945 53.4196C43.8699 53.0268 44.7201 53.0122 46.4209 52.983C48.9317 52.9396 50.5063 52.7858 51.8269 52.2388C54.2773 51.2238 56.2239 49.2772 57.2389 46.8268C58.0001 44.9892 58.0001 42.6594 58.0001 38V36C58.0001 34.3899 58.0001 32.9778 57.9781 31.7279C56.3885 33.1414 54.2947 34 52.0001 34C47.0295 34 43.0001 29.9706 43.0001 25C43.0001 22.7055 43.8587 20.6115 45.2723 19.0219Z" fill="#292D32"/>
<g opacity="0.4">
<path d="M34.8751 40.1878C34.8751 41.4003 35.8126 42.3753 36.9626 42.3753H39.3126C40.3126 42.3753 41.1251 41.5253 41.1251 40.4628C41.1251 39.3253 40.6251 38.9128 39.8876 38.6503L36.1251 37.3378C35.3876 37.0753 34.8876 36.6753 34.8876 35.5253C34.8876 34.4753 35.7001 33.6128 36.7001 33.6128H39.0501C40.2001 33.6128 41.1376 34.5878 41.1376 35.8003" stroke="white" stroke-width="1.875" stroke-linecap="round" stroke-linejoin="round"/>
<path d="M38.0001 32.375V43.625" stroke="white" stroke-width="1.875" stroke-linecap="round" stroke-linejoin="round"/>
</g>
<path d="M50.5001 38C50.5001 44.9 44.9001 50.5 38.0001 50.5C31.1001 50.5 25.5001 44.9 25.5001 38C25.5001 31.1 31.1001 25.5 38.0001 25.5" stroke="#292D32" stroke-width="1.875" stroke-linecap="round" stroke-linejoin="round"/>
<path d="M54.0001 27V23H50.0001" stroke="#78857E" stroke-width="1.25" stroke-linecap="round" stroke-linejoin="round"/>
<path d="M49.0001 28L54.0001 23" stroke="#78857E" stroke-width="1.25" stroke-linecap="round" stroke-linejoin="round"/>
</svg>
