<svg width="75" height="75" viewBox="0 0 75 75" fill="none" xmlns="http://www.w3.org/2000/svg">
<circle cx="37.5" cy="37.5" r="37.5" fill="#1F932D"/>
<path d="M58 25C58 28.3137 55.3138 31 52 31C48.6862 31 46 28.3137 46 25C46 21.6863 48.6862 19 52 19C55.3138 19 58 21.6863 58 25Z" fill="#8FC996"/>
<path opacity="0.5" d="M45.2722 19.0219C44.0222 19 42.6102 19 41 19H35C28.4531 19 25.1797 19 22.775 20.4736C21.4295 21.2982 20.2982 22.4295 19.4736 23.775C18 26.1797 18 29.4531 18 36V38C18 42.6594 18 44.9892 18.7612 46.8268C19.7761 49.2772 21.7229 51.2238 24.1732 52.2388C25.4938 52.7858 27.0684 52.9396 29.5792 52.983C31.2798 53.0122 32.1302 53.0268 32.8056 53.4196C33.481 53.8126 33.9015 54.5228 34.7424 55.9436L35.8266 57.7754C36.793 59.408 39.207 59.408 40.1734 57.7754L41.2576 55.9436C42.0984 54.5228 42.519 53.8124 43.1944 53.4196C43.8698 53.0268 44.72 53.0122 46.4208 52.983C48.9316 52.9396 50.5062 52.7858 51.8268 52.2388C54.2772 51.2238 56.2238 49.2772 57.2388 46.8268C58 44.9892 58 42.6594 58 38V36C58 34.3899 58 32.9778 57.978 31.7279C56.3884 33.1414 54.2946 34 52 34C47.0294 34 43 29.9706 43 25C43 22.7055 43.8586 20.6115 45.2722 19.0219Z" fill="white"/>
<path d="M34.875 40.1882C34.875 41.4007 35.8125 42.3757 36.9625 42.3757H39.3125C40.3125 42.3757 41.125 41.5257 41.125 40.4632C41.125 39.3257 40.625 38.9132 39.8875 38.6507L36.125 37.3382C35.3875 37.0757 34.8875 36.6757 34.8875 35.5257C34.8875 34.4758 35.7 33.6133 36.7 33.6133H39.05C40.2 33.6133 41.1375 34.5883 41.1375 35.8007" stroke="white" stroke-width="2.575" stroke-linecap="round" stroke-linejoin="round"/>
<path d="M38 32.3755V43.6255" stroke="white" stroke-width="2.575" stroke-linecap="round" stroke-linejoin="round"/>
<path d="M50.5 38.0002C50.5 44.9002 44.9 50.5002 38 50.5002C31.1 50.5002 25.5 44.9002 25.5 38.0002C25.5 31.1002 31.1 25.5002 38 25.5002" stroke="#1F932D" stroke-width="2.575" stroke-linecap="round" stroke-linejoin="round"/>
<path d="M54 27V23H50" stroke="white" stroke-width="1.71667" stroke-linecap="round" stroke-linejoin="round"/>
<path d="M49 28L54 23" stroke="white" stroke-width="1.71667" stroke-linecap="round" stroke-linejoin="round"/>
</svg>
