<svg width="75" height="75" viewBox="0 0 75 75" fill="none" xmlns="http://www.w3.org/2000/svg">
<circle cx="37.5" cy="37.5" r="37.5" fill="#F0F0F0" fill-opacity="0.8"/>
<path d="M32.5218 36.6046C32.3414 36.5866 32.125 36.5866 31.9266 36.6046C27.6341 36.4603 24.2253 32.9434 24.2253 28.6148C24.2253 24.196 27.7964 20.6069 32.2332 20.6069C36.6519 20.6069 40.241 24.196 40.241 28.6148C40.2229 32.9434 36.8142 36.4603 32.5218 36.6046Z" stroke="#292D32" stroke-width="2.70536" stroke-linecap="round" stroke-linejoin="round"/>
<path opacity="0.4" d="M45.5953 24.2144C49.0942 24.2144 51.9078 27.046 51.9078 30.5269C51.9078 33.9356 49.2025 36.7131 45.8298 36.8394C45.6855 36.8213 45.5232 36.8213 45.3608 36.8394" stroke="#292D32" stroke-width="2.70536" stroke-linecap="round" stroke-linejoin="round"/>
<path d="M23.5042 43.2601C19.1396 46.1819 19.1396 50.9433 23.5042 53.847C28.464 57.1656 36.5981 57.1656 41.558 53.847C45.9226 50.9253 45.9226 46.1638 41.558 43.2601C36.6162 39.9595 28.4821 39.9595 23.5042 43.2601Z" stroke="#292D32" stroke-width="2.70536" stroke-linecap="round" stroke-linejoin="round"/>
<path opacity="0.4" d="M49.0771 53.0712C50.3757 52.8007 51.6022 52.2776 52.6122 51.5021C55.4257 49.3919 55.4257 45.911 52.6122 43.8008C51.6202 43.0433 50.4118 42.5383 49.1313 42.2498" stroke="#292D32" stroke-width="2.70536" stroke-linecap="round" stroke-linejoin="round"/>
</svg>
