<svg width="109" height="118" viewBox="0 0 109 118" fill="none" xmlns="http://www.w3.org/2000/svg">
<path opacity="0.4" d="M60.5569 100.592L65.6878 105.723L75.9496 95.4612" stroke="#292D32" stroke-width="6" stroke-linecap="round" stroke-linejoin="round"/>
<path opacity="0.4" d="M52.8644 72.9804C52.5268 72.9466 52.1217 72.9466 51.7504 72.9804C43.7164 72.7103 37.3366 66.1279 37.3366 58.0265C37.3028 49.7563 44.0202 43.0388 52.2905 43.0388C60.5607 43.0388 67.2782 49.7563 67.2782 58.0265C67.2782 66.1279 60.8645 72.7103 52.8644 72.9804Z" stroke="#292D32" stroke-width="6" stroke-linecap="round" stroke-linejoin="round"/>
<path d="M52.2854 109.91C46.1418 109.91 40.0319 108.357 35.3735 105.252C27.2046 99.7832 27.2046 90.8716 35.3735 85.4369C44.6564 79.2258 59.8805 79.2258 69.1634 85.4369" stroke="#292D32" stroke-width="6" stroke-linecap="round" stroke-linejoin="round"/>
<mask id="mask0_2345_393" style="mask-type:luminance" maskUnits="userSpaceOnUse" x="35" y="0" width="74" height="23">
<path d="M35.8235 0H108.052V22.5201H35.8235V0Z" fill="white"/>
</mask>
<g mask="url(#mask0_2345_393)">
<mask id="mask1_2345_393" style="mask-type:luminance" maskUnits="userSpaceOnUse" x="35" y="0" width="74" height="23">
<path d="M51.1025 0H106.211C106.869 0 107.476 0.35268 107.803 0.925336C108.128 1.4968 108.122 2.19857 107.787 2.76525L97.7256 19.7548C96.7106 21.4692 94.8671 22.5201 92.8754 22.5201H37.7665C37.1089 22.5201 36.5004 22.1674 36.1752 21.5959C35.8489 21.0233 35.8548 20.3215 36.1908 19.7548L46.2511 2.76525C47.2661 1.05087 49.1108 0 51.1025 0Z" fill="white"/>
</mask>
<g mask="url(#mask1_2345_393)">
<path d="M34.5535 0H109.426V22.5201H34.5535V0Z" fill="black"/>
</g>
</g>
<path d="M11.3386 8.16637H7.34076V18.73H3.9646V8.16637H0.000244141V5.43579H11.3386V8.16637Z" fill="black"/>
<path d="M14.9634 8.50567V10.232C15.6831 9.00779 16.7901 8.38372 18.2822 8.35742V11.3128C17.3449 11.2267 16.5797 11.3833 15.9867 11.7814C15.3938 12.1771 15.0518 12.7414 14.9634 13.4743V18.7298H11.6829V8.50567H14.9634Z" fill="black"/>
<path d="M28.6562 8.50562V18.7297H25.3757V17.0417C24.6799 18.2563 23.574 18.8636 22.0569 18.8636C20.9439 18.8636 20.0544 18.5098 19.3885 17.802C18.725 17.0943 18.3938 16.1462 18.3938 14.9567V8.50562H21.6743V14.0242C21.6743 14.6339 21.8285 15.1121 22.1382 15.4588C22.4502 15.8067 22.8651 15.98 23.3815 15.98C24.0032 15.9681 24.491 15.7361 24.8448 15.2866C25.1987 14.8371 25.3757 14.2585 25.3757 13.5507V8.50562H28.6562Z" fill="black"/>
<path d="M34.6685 8.396C36.4378 8.396 37.7673 8.93996 38.6567 10.0267C39.5486 11.1146 39.9383 12.6066 39.8236 14.5027H32.6361C32.8011 15.1089 33.0928 15.5763 33.5112 15.9039C33.9284 16.2327 34.4401 16.3964 35.0462 16.3964C35.98 16.3964 36.7965 16.0497 37.4947 15.3539L39.2162 17.042C38.1164 18.2447 36.6303 18.8449 34.7593 18.8449C33.1047 18.8449 31.7861 18.3714 30.8045 17.4246C29.8254 16.4753 29.3364 15.2153 29.3364 13.6467C29.3364 12.0663 29.8254 10.7954 30.8045 9.83541C31.7861 8.8766 33.0736 8.396 34.6685 8.396ZM32.5787 12.7381H36.6769C36.6769 12.1165 36.4964 11.6167 36.1366 11.2366C35.7755 10.8576 35.2997 10.6675 34.7067 10.6675C34.1484 10.6675 33.6798 10.854 33.3008 11.227C32.9206 11.6 32.6803 12.1045 32.5787 12.7381Z" fill="black"/>
<path d="M43.3853 4.60913H48.5404C50.0515 4.60913 51.2231 4.96779 52.0552 5.6851C52.8897 6.40003 53.3081 7.41622 53.3081 8.73608C53.3081 10.1229 52.8897 11.1989 52.0552 11.964C51.2231 12.7291 50.0515 13.1117 48.5404 13.1117H46.3932V16.4448H43.3853V4.60913ZM46.3932 6.97627V10.7446H48.3873C49.0532 10.7446 49.5661 10.582 49.9272 10.2568C50.287 9.92921 50.4675 9.45579 50.4675 8.8365C50.4675 8.22798 50.287 7.76531 49.9272 7.4497C49.5661 7.13408 49.0532 6.97627 48.3873 6.97627H46.3932Z" fill="#D6D6D6"/>
<path d="M57.9918 7.19604C59.2411 7.19604 60.2119 7.48656 60.9041 8.06639C61.5987 8.64741 61.9526 9.45559 61.9657 10.4909V16.4446H59.106V15.3973C58.5095 16.1852 57.5805 16.5785 56.3181 16.5785C55.3581 16.5785 54.5965 16.3143 54.0322 15.7847C53.4679 15.2563 53.1858 14.5688 53.1858 13.7236C53.1858 12.8533 53.4871 12.179 54.0896 11.7008C54.6945 11.2226 55.5601 10.9775 56.6863 10.9643H59.0917V10.8304C59.0917 10.3809 58.941 10.0294 58.6422 9.77359C58.3421 9.51895 57.8985 9.39103 57.3127 9.39103C56.4902 9.39103 55.5828 9.64687 54.5917 10.1562L53.7644 8.22898C55.2397 7.54036 56.6492 7.19604 57.9918 7.19604ZM57.2123 14.6035C57.6738 14.6035 58.0791 14.4887 58.427 14.2592C58.7773 14.0273 58.9984 13.7236 59.0917 13.3506V12.5376H57.2458C56.3659 12.5376 55.9259 12.8652 55.9259 13.518C55.9259 13.8563 56.0383 14.1229 56.2655 14.3166C56.4914 14.5079 56.807 14.6035 57.2123 14.6035Z" fill="white"/>
<path d="M66.0038 7.32994V8.86978C66.6446 7.77707 67.6309 7.21876 68.9639 7.19604V9.83098C68.1282 9.75447 67.4444 9.89315 66.9124 10.247C66.3828 10.6009 66.0803 11.1066 66.0038 11.7629V16.4446H63.0771V7.32994H66.0038Z" fill="white"/>
<path d="M74.6404 13.9247L75.219 15.9524C74.5077 16.3708 73.6947 16.5788 72.7802 16.5788C71.8775 16.5788 71.1471 16.3289 70.59 15.828C70.0317 15.3283 69.7531 14.6158 69.7531 13.6904V9.6639H68.4858V7.75106H69.7531V5.21655H72.6654V7.73672H75.0469V9.6639H72.6654V13.2313C72.6654 13.5828 72.7347 13.8387 72.8758 14.0013C73.0157 14.1639 73.2261 14.2404 73.507 14.2308C73.7772 14.2308 74.155 14.1292 74.6404 13.9247Z" fill="white"/>
<path d="M81.6902 7.19604C82.6945 7.19604 83.5002 7.51525 84.11 8.15246C84.7185 8.78729 85.0233 9.63491 85.0233 10.6965V16.4446H82.1158V11.5047C82.1158 10.9763 81.97 10.5567 81.6807 10.247C81.3937 9.93858 81.0028 9.78316 80.509 9.78316C79.989 9.78316 79.5622 9.95292 79.2274 10.2901C78.8951 10.6284 78.7026 11.0731 78.6488 11.6243V16.4446H75.7222V7.32994H78.6488V8.81718C79.2896 7.75914 80.3034 7.21876 81.6902 7.19604Z" fill="white"/>
<path d="M90.1244 7.22998C91.7048 7.22998 92.8932 7.71536 93.687 8.68374C94.4808 9.65331 94.8263 10.9827 94.7247 12.672H88.3167C88.4626 13.2148 88.7208 13.632 89.0914 13.9249C89.4644 14.219 89.9211 14.3649 90.4639 14.3649C91.2984 14.3649 92.0252 14.0564 92.6445 13.4371L94.1844 14.9387C93.2016 16.0099 91.877 16.5455 90.2104 16.5455C88.734 16.5455 87.5588 16.1235 86.686 15.2782C85.8121 14.4342 85.3757 13.3116 85.3757 11.9117C85.3757 10.5033 85.8121 9.37116 86.686 8.51636C87.5588 7.65917 88.7053 7.22998 90.1244 7.22998ZM88.2689 11.1035H91.9176C91.9176 10.5488 91.7562 10.1028 91.4346 9.76449C91.1154 9.42735 90.691 9.25759 90.1626 9.25759C89.6653 9.25759 89.2468 9.42496 88.9097 9.75971C88.5714 10.0921 88.3574 10.5392 88.2689 11.1035Z" fill="white"/>
<path d="M98.276 7.32994V8.86978C98.9168 7.77707 99.9031 7.21876 101.236 7.19604V9.83098C100.4 9.75447 99.7166 9.89315 99.1846 10.247C98.655 10.6009 98.3525 11.1066 98.276 11.7629V16.4446H95.3494V7.32994H98.276Z" fill="white"/>
</svg>
