<svg width="90" height="100" viewBox="0 0 90 100" fill="none" xmlns="http://www.w3.org/2000/svg">
<path opacity="0.4" d="M89.55 45.6C89.55 70.05 71.8 92.95 47.55 99.65C45.9 100.1 44.0999 100.1 42.4499 99.65C18.1999 92.95 0.449951 70.05 0.449951 45.6V23.6501C0.449951 19.5501 3.55002 14.9001 7.40002 13.3501L35.2499 1.9501C41.4999 -0.599902 48.5499 -0.599902 54.7999 1.9501L82.65 13.3501C86.45 14.9001 89.6 19.5501 89.6 23.6501L89.55 45.6Z" fill="#12A9E7"/>
<path d="M57.5 42.5C57.5 35.6 51.9 30 45 30C38.1 30 32.5 35.6 32.5 42.5C32.5 48.1 36.2 52.75 41.25 54.35V67.5C41.25 69.55 42.95 71.25 45 71.25C47.05 71.25 48.75 69.55 48.75 67.5V54.35C53.8 52.75 57.5 48.1 57.5 42.5Z" fill="#12A9E7"/>
</svg>
