<svg width="20" height="20" viewBox="0 0 20 20" fill="none" xmlns="http://www.w3.org/2000/svg">
<path d="M9.99998 10C12.3012 10 14.1666 8.13454 14.1666 5.83335C14.1666 3.53217 12.3012 1.66669 9.99998 1.66669C7.69879 1.66669 5.83331 3.53217 5.83331 5.83335C5.83331 8.13454 7.69879 10 9.99998 10Z" stroke="white" stroke-width="1.5" stroke-linecap="round" stroke-linejoin="round"/>
<path d="M2.84167 18.3333C2.84167 15.1083 6.05 12.5 10 12.5C10.8 12.5 11.575 12.6083 12.3 12.8083" stroke="white" stroke-width="1.5" stroke-linecap="round" stroke-linejoin="round"/>
<path d="M18.3334 15C18.3334 15.2667 18.3 15.525 18.2334 15.775C18.1584 16.1083 18.025 16.4334 17.85 16.7167C17.275 17.6834 16.2167 18.3334 15 18.3334C14.1417 18.3334 13.3667 18.0083 12.7834 17.475C12.5334 17.2583 12.3167 17 12.15 16.7167C11.8417 16.2167 11.6667 15.625 11.6667 15C11.6667 14.1 12.025 13.275 12.6084 12.675C13.2167 12.05 14.0667 11.6667 15 11.6667C15.9834 11.6667 16.875 12.0917 17.475 12.775C18.0084 13.3667 18.3334 14.15 18.3334 15Z" stroke="white" stroke-width="1.5" stroke-miterlimit="10" stroke-linecap="round" stroke-linejoin="round"/>
<path d="M16.2417 14.9833H13.7584" stroke="white" stroke-width="1.5" stroke-miterlimit="10" stroke-linecap="round" stroke-linejoin="round"/>
<path d="M15 13.7667V16.2583" stroke="white" stroke-width="1.5" stroke-miterlimit="10" stroke-linecap="round" stroke-linejoin="round"/>
</svg>
