<svg width="92" height="100" viewBox="0 0 92 100" fill="none" xmlns="http://www.w3.org/2000/svg">
<path opacity="0.4" d="M91.4001 32.9002V67.1C91.4001 72.7 88.4 77.9002 83.55 80.7502L53.85 97.9002C49 100.7 42.9999 100.7 38.0999 97.9002L8.3999 80.7502C3.5499 77.9502 0.549866 72.75 0.549866 67.1V32.9002C0.549866 27.3002 3.5499 22.1 8.3999 19.25L38.0999 2.1C42.9499 -0.7 48.95 -0.7 53.85 2.1L83.55 19.25C88.4 22.1 91.4001 27.2502 91.4001 32.9002Z" fill="#F7931E"/>
<path d="M46 58.75C43.95 58.75 42.25 57.05 42.25 55V28.75C42.25 26.7 43.95 25 46 25C48.05 25 49.75 26.7 49.75 28.75V55C49.75 57.05 48.05 58.75 46 58.75Z" fill="#F7931E"/>
<path d="M46 76.2498C45.35 76.2498 44.7 76.0997 44.1 75.8497C43.45 75.5997 42.9499 75.2499 42.4499 74.7999C41.9999 74.2999 41.65 73.7498 41.35 73.1498C41.1 72.5498 41 71.8998 41 71.2498C41 69.9498 41.4999 68.6497 42.4499 67.6997C42.9499 67.2497 43.45 66.8999 44.1 66.6499C45.95 65.8499 48.1501 66.2997 49.5501 67.6997C50.0001 68.1997 50.3499 68.6998 50.5999 69.3498C50.8499 69.9498 51 70.5998 51 71.2498C51 71.8998 50.8499 72.5498 50.5999 73.1498C50.3499 73.7498 50.0001 74.2999 49.5501 74.7999C48.6001 75.7499 47.35 76.2498 46 76.2498Z" fill="#FFB043"/>
</svg>
