<svg width="94" height="66" viewBox="0 0 94 66" fill="none" xmlns="http://www.w3.org/2000/svg">
<mask id="mask0_2369_703" style="mask-type:luminance" maskUnits="userSpaceOnUse" x="24" y="0" width="70" height="15">
<path d="M24.8965 0H93.9978V14.0195H24.8965V0Z" fill="white"/>
</mask>
<g mask="url(#mask0_2369_703)">
<mask id="mask1_2369_703" style="mask-type:luminance" maskUnits="userSpaceOnUse" x="24" y="0" width="70" height="15">
<path d="M39.5102 0H92.2329C92.862 0 93.443 0.219555 93.7553 0.576053C94.0664 0.931807 94.0607 1.36868 93.7404 1.72146L84.1145 12.2981C83.1435 13.3653 81.3798 14.0195 79.4743 14.0195H26.7516C26.1225 14.0195 25.5404 13.8 25.2293 13.4442C24.917 13.0877 24.9227 12.6508 25.2441 12.2981L34.8689 1.72146C35.8399 0.6542 37.6047 0 39.5102 0Z" fill="white"/>
</mask>
<g mask="url(#mask1_2369_703)">
<path d="M23.6787 0H95.3089V14.0195H23.6787V0Z" fill="black"/>
</g>
</g>
<g clip-path="url(#clip0_2369_703)">
<path fill-rule="evenodd" clip-rule="evenodd" d="M52.7543 22.2629C57.4965 23.6928 61.5406 26.8291 64.1057 31.0661C64.2611 31.328 64.4668 31.5565 64.711 31.7384C64.9552 31.9203 65.233 32.052 65.5283 32.126C65.8237 32.2 66.1308 32.2147 66.4319 32.1693C66.7329 32.1239 67.0221 32.0193 67.2825 31.8616C67.5429 31.7039 67.7696 31.4961 67.9493 31.2503C68.129 31.0045 68.2582 30.7256 68.3295 30.4296C68.4008 30.1335 68.4128 29.8263 68.3647 29.5257C68.3166 29.225 68.2094 28.9368 68.0494 28.6778C65.9768 25.2521 63.0991 22.3843 59.6663 20.3236C56.2335 18.2628 52.3494 17.0715 48.3515 16.853C44.3536 16.6346 40.3629 17.3957 36.726 19.0702C33.0891 20.7447 29.9161 23.2819 27.4827 26.4614C25.0493 29.6409 23.429 33.3666 22.7628 37.3146C22.0965 41.2626 22.4044 45.3136 23.6596 49.1156C24.9148 52.9177 27.0795 56.3557 29.9654 59.1309C32.8514 61.9062 36.3713 63.9348 40.2195 65.0404C40.5145 65.138 40.8261 65.175 41.1357 65.1491C41.4453 65.1231 41.7465 65.0349 42.0212 64.8897C42.2958 64.7444 42.5383 64.5452 42.734 64.3039C42.9297 64.0626 43.0746 63.7842 43.16 63.4855C43.2454 63.1868 43.2696 62.8739 43.231 62.5656C43.1924 62.2573 43.0919 61.96 42.9356 61.6915C42.7792 61.423 42.5702 61.1889 42.3211 61.0033C42.0719 60.8176 41.7879 60.6843 41.4859 60.6112C37.5701 59.4838 34.0923 57.187 31.518 54.0283C28.9438 50.8695 27.3961 46.9997 27.0822 42.937H34.7759C35.1305 47.9302 36.5966 52.781 39.0669 57.1347C39.3685 57.6643 39.8676 58.0528 40.4549 58.2154C41.0423 58.378 41.6701 58.3014 42.2011 58.0024C42.7321 57.7033 43.1232 57.2062 43.2887 56.6197C43.4542 56.0331 43.3807 55.4049 43.0843 54.8724C41.0036 51.2088 39.7459 47.1359 39.3988 42.937H41.6211C42.2326 42.937 42.8189 42.6941 43.2513 42.2618C43.6836 41.8295 43.9265 41.2431 43.9265 40.6317C43.9265 40.0203 43.6836 39.4339 43.2513 39.0016C42.8189 38.5692 42.2326 38.3264 41.6211 38.3264H39.5617C40.3455 32.56 42.9029 27.061 47.0002 22.4534C49.2126 24.9271 51.0142 27.7394 52.3363 30.7833C52.4495 31.0707 52.6192 31.3324 52.8355 31.5529C53.0518 31.7733 53.3101 31.9481 53.5953 32.0668C53.8804 32.1855 54.1864 32.2457 54.4953 32.2438C54.8041 32.2419 55.1094 32.178 55.3931 32.0558C55.6767 31.9337 55.9329 31.7558 56.1465 31.5327C56.3601 31.3096 56.5266 31.0459 56.6363 30.7572C56.746 30.4685 56.7965 30.1607 56.7849 29.852C56.7733 29.5434 56.6999 29.2403 56.5689 28.9606C55.5468 26.594 54.2676 24.3469 52.7543 22.2598V22.2629ZM41.2461 22.2629C37.6376 23.3504 34.4096 25.4352 31.9342 28.2772C29.4587 31.1192 27.8365 34.6027 27.2544 38.3264H34.9203C35.6181 32.5174 37.7987 26.9856 41.2523 22.2629H41.2461Z" fill="#A5A7A9"/>
<path d="M45.4648 40.6318C45.4648 38.7976 46.1935 37.0385 47.4905 35.7415C48.7875 34.4445 50.5466 33.7158 52.3808 33.7158H64.6759C66.5101 33.7158 68.2692 34.4445 69.5662 35.7415C70.8632 37.0385 71.5918 38.7976 71.5918 40.6318V63.685C71.5918 64.2964 71.349 64.8828 70.9166 65.3151C70.4843 65.7475 69.8979 65.9903 69.2865 65.9903C68.6751 65.9903 68.0887 65.7475 67.6564 65.3151C67.2241 64.8828 66.9812 64.2964 66.9812 63.685V40.6318C66.9812 40.0204 66.7383 39.434 66.306 39.0017C65.8736 38.5693 65.2873 38.3265 64.6759 38.3265H52.3808C51.7694 38.3265 51.183 38.5693 50.7507 39.0017C50.3184 39.434 50.0755 40.0204 50.0755 40.6318V63.685C50.0755 64.2964 49.8326 64.8828 49.4003 65.3151C48.9679 65.7475 48.3816 65.9903 47.7702 65.9903C47.1588 65.9903 46.5724 65.7475 46.1401 65.3151C45.7077 64.8828 45.4648 64.2964 45.4648 63.685V40.6318Z" fill="#292D32"/>
<path d="M53.9167 53.6934C53.3052 53.6934 52.7189 53.9363 52.2865 54.3686C51.8542 54.8009 51.6113 55.3873 51.6113 55.9987V63.6831C51.6113 64.2945 51.8542 64.8809 52.2865 65.3132C52.7189 65.7456 53.3052 65.9884 53.9167 65.9884C54.5281 65.9884 55.1144 65.7456 55.5468 65.3132C55.9791 64.8809 56.222 64.2945 56.222 63.6831V58.304H60.8326V63.6831C60.8326 64.2945 61.0755 64.8809 61.5078 65.3132C61.9402 65.7456 62.5265 65.9884 63.1379 65.9884C63.7494 65.9884 64.3357 65.7456 64.7681 65.3132C65.2004 64.8809 65.4433 64.2945 65.4433 63.6831V55.9987C65.4433 55.3873 65.2004 54.8009 64.7681 54.3686C64.3357 53.9363 63.7494 53.6934 63.1379 53.6934H53.9167ZM52.3798 42.9352C52.3798 42.3238 52.6227 41.7374 53.055 41.3051C53.4873 40.8728 54.0737 40.6299 54.6851 40.6299H55.4535C56.0649 40.6299 56.6513 40.8728 57.0836 41.3051C57.516 41.7374 57.7589 42.3238 57.7589 42.9352C57.7589 43.5466 57.516 44.133 57.0836 44.5653C56.6513 44.9976 56.0649 45.2405 55.4535 45.2405H54.6851C54.0737 45.2405 53.4873 44.9976 53.055 44.5653C52.6227 44.133 52.3798 43.5466 52.3798 42.9352ZM61.6011 40.6299C60.9897 40.6299 60.4033 40.8728 59.971 41.3051C59.5386 41.7374 59.2957 42.3238 59.2957 42.9352C59.2957 43.5466 59.5386 44.133 59.971 44.5653C60.4033 44.9976 60.9897 45.2405 61.6011 45.2405H62.3695C62.9809 45.2405 63.5673 44.9976 63.9996 44.5653C64.4319 44.133 64.6748 43.5466 64.6748 42.9352C64.6748 42.3238 64.4319 41.7374 63.9996 41.3051C63.5673 40.8728 62.9809 40.6299 62.3695 40.6299H61.6011ZM52.3798 49.0827C52.3798 48.4713 52.6227 47.885 53.055 47.4526C53.4873 47.0203 54.0737 46.7774 54.6851 46.7774H55.4535C56.0649 46.7774 56.6513 47.0203 57.0836 47.4526C57.516 47.885 57.7589 48.4713 57.7589 49.0827C57.7589 49.6941 57.516 50.2805 57.0836 50.7128C56.6513 51.1452 56.0649 51.3881 55.4535 51.3881H54.6851C54.0737 51.3881 53.4873 51.1452 53.055 50.7128C52.6227 50.2805 52.3798 49.6941 52.3798 49.0827ZM61.6011 46.7774C60.9897 46.7774 60.4033 47.0203 59.971 47.4526C59.5386 47.885 59.2957 48.4713 59.2957 49.0827C59.2957 49.6941 59.5386 50.2805 59.971 50.7128C60.4033 51.1452 60.9897 51.3881 61.6011 51.3881H62.3695C62.9809 51.3881 63.5673 51.1452 63.9996 50.7128C64.4319 50.2805 64.6748 49.6941 64.6748 49.0827C64.6748 48.4713 64.4319 47.885 63.9996 47.4526C63.5673 47.0203 62.9809 46.7774 62.3695 46.7774H61.6011Z" fill="#292D32"/>
</g>
<path d="M2.91778 10.623V5.20451H0.526004V3.34188H7.63784V5.20451H5.25664V10.623H2.91778ZM7.81105 10.623V5.03518H9.5361L9.67368 5.88182H9.74776C9.83948 5.67016 9.95589 5.49025 10.097 5.34209C10.2452 5.19392 10.4145 5.08456 10.605 5.01401C10.7955 4.9364 10.9966 4.8976 11.2082 4.8976C11.3493 4.8976 11.4763 4.91171 11.5892 4.93993C11.7021 4.96815 11.7832 4.99637 11.8326 5.02459V6.79197H11.1553C10.9295 6.79197 10.7355 6.82372 10.5732 6.88722C10.418 6.94366 10.291 7.03185 10.1922 7.15179C10.1005 7.26468 10.03 7.40579 9.98059 7.57512C9.93825 7.73739 9.91709 7.92436 9.91709 8.13602V10.623H7.81105ZM14.4396 10.75C13.7764 10.75 13.2861 10.5666 12.9686 10.1997C12.6511 9.83284 12.4923 9.3178 12.4923 8.65459V5.03518H14.5984V8.4006C14.5984 8.51348 14.6125 8.61932 14.6407 8.71809C14.676 8.81687 14.7218 8.90153 14.7783 8.97209C14.8347 9.04264 14.9088 9.09908 15.0005 9.14141C15.0922 9.17669 15.1945 9.19433 15.3074 9.19433C15.4838 9.19433 15.6355 9.15553 15.7625 9.07792C15.8966 8.99325 15.9989 8.88389 16.0694 8.74984C16.147 8.61579 16.1858 8.47115 16.1858 8.31593V5.03518H18.2919V10.623H16.5668L16.461 9.7764H16.3869C16.2529 9.98101 16.08 10.1574 15.8683 10.3056C15.6637 10.4537 15.438 10.5631 15.191 10.6336C14.9441 10.7112 14.6936 10.75 14.4396 10.75ZM22.5885 10.75C21.9183 10.75 21.3362 10.6477 20.8423 10.4431C20.3555 10.2315 19.978 9.91045 19.7099 9.48007C19.4489 9.04969 19.3183 8.49937 19.3183 7.82911C19.3183 7.17296 19.4489 6.6297 19.7099 6.19932C19.971 5.76894 20.3343 5.44792 20.8 5.23626C21.2727 5.01754 21.8265 4.90818 22.4615 4.90818C23.1318 4.90818 23.6997 5.01401 24.1654 5.22567C24.6381 5.43028 24.9979 5.74777 25.2449 6.17815C25.4918 6.60853 25.6153 7.15885 25.6153 7.82911V8.18894H21.4244C21.4244 8.44293 21.4597 8.66165 21.5302 8.84509C21.6078 9.02853 21.7278 9.16964 21.89 9.26841C22.0594 9.36013 22.2781 9.40599 22.5462 9.40599C22.7367 9.40599 22.8954 9.38483 23.0224 9.34249C23.1565 9.30016 23.2623 9.24372 23.3399 9.17316C23.4246 9.09555 23.4845 9.00736 23.5198 8.90859C23.5551 8.80981 23.5727 8.70398 23.5727 8.59109H25.6153C25.6153 8.9227 25.5518 9.22255 25.4248 9.49066C25.2978 9.75876 25.1073 9.98806 24.8533 10.1786C24.5993 10.362 24.2818 10.5031 23.9008 10.6019C23.5269 10.7007 23.0894 10.75 22.5885 10.75ZM21.435 7.19413H23.4881C23.4881 7.04596 23.4669 6.91544 23.4246 6.80255C23.3822 6.68261 23.3187 6.58384 23.2341 6.50623C23.1565 6.42156 23.0577 6.35806 22.9378 6.31573C22.8249 6.2734 22.6943 6.25223 22.5462 6.25223C22.3134 6.25223 22.1193 6.29104 21.9641 6.36865C21.8089 6.44626 21.689 6.55561 21.6043 6.69672C21.5196 6.83077 21.4632 6.99658 21.435 7.19413Z" fill="#292D32"/>
<path d="M26.7793 10.623V3.34188H29.1182V10.623H26.7793ZM30.5378 10.623V5.03518H32.2629L32.4004 5.88182H32.4745C32.6227 5.66311 32.7955 5.48319 32.9931 5.34209C33.1906 5.19392 33.4094 5.08456 33.6492 5.01401C33.8891 4.94346 34.1361 4.90818 34.3901 4.90818C34.8346 4.90818 35.1979 4.99284 35.4801 5.16217C35.7694 5.32445 35.9846 5.5608 36.1257 5.87124C36.2668 6.18168 36.3373 6.55914 36.3373 7.00363V10.623H34.2313V7.25763C34.2313 7.13768 34.2137 7.03185 34.1784 6.94013C34.1502 6.84136 34.1078 6.75669 34.0514 6.68614C33.995 6.61558 33.9209 6.56267 33.8292 6.52739C33.7445 6.48506 33.6422 6.46389 33.5222 6.46389C33.3459 6.46389 33.1906 6.50623 33.0566 6.59089C32.9296 6.6685 32.8273 6.77433 32.7497 6.90838C32.6791 7.03538 32.6439 7.18002 32.6439 7.34229V10.623H30.5378Z" fill="#A5A7A9"/>
<path d="M39.7027 10.75C39.2088 10.75 38.7855 10.6442 38.4327 10.4326C38.0799 10.2138 37.8083 9.88929 37.6178 9.45891C37.4344 9.02147 37.3427 8.47468 37.3427 7.81853C37.3427 7.16943 37.4344 6.6297 37.6178 6.19932C37.8083 5.76894 38.0799 5.44792 38.4327 5.23626C38.7855 5.01754 39.2088 4.90818 39.7027 4.90818C39.9002 4.90818 40.0907 4.93287 40.2742 4.98226C40.4647 5.02459 40.6375 5.09515 40.7927 5.19392C40.955 5.28564 41.0891 5.40559 41.1949 5.55375H41.269V2.95031H43.375V10.623H41.6606L41.5124 9.82932H41.4383C41.2408 10.1468 40.9938 10.3796 40.6975 10.5278C40.4012 10.676 40.0696 10.75 39.7027 10.75ZM40.3588 9.19433C40.5776 9.19433 40.7539 9.14141 40.888 9.03558C41.0291 8.92975 41.1314 8.78865 41.1949 8.61226C41.2584 8.42882 41.2901 8.22774 41.2901 8.00902V7.65978C41.2901 7.49751 41.2725 7.34582 41.2372 7.20471C41.202 7.05655 41.1455 6.92955 41.0679 6.82372C40.9973 6.71083 40.9021 6.62264 40.7822 6.55914C40.6622 6.49564 40.5211 6.46389 40.3588 6.46389C40.1401 6.46389 39.9637 6.50975 39.8297 6.60147C39.6956 6.69319 39.5969 6.82019 39.5334 6.98247C39.4769 7.14474 39.4487 7.33523 39.4487 7.55395V8.11486C39.4487 8.33357 39.4769 8.52407 39.5334 8.68634C39.5969 8.84862 39.6956 8.97561 39.8297 9.06733C39.9637 9.152 40.1401 9.19433 40.3588 9.19433ZM44.6555 4.37903V2.95031H46.7615V4.37903H44.6555ZM44.6555 10.623V5.03518H46.7615V10.623H44.6555ZM50.9242 10.75C50.2892 10.75 49.7354 10.6442 49.2627 10.4326C48.797 10.2138 48.4337 9.88929 48.1726 9.45891C47.9116 9.02147 47.7811 8.47821 47.7811 7.82911C47.7811 7.17296 47.9116 6.6297 48.1726 6.19932C48.4337 5.76188 48.797 5.43733 49.2627 5.22567C49.7354 5.00696 50.2892 4.8976 50.9242 4.8976C51.3476 4.8976 51.7462 4.94346 52.1201 5.03518C52.4941 5.1269 52.8221 5.268 53.1043 5.4585C53.3866 5.649 53.6053 5.89593 53.7605 6.19932C53.9228 6.5027 54.0039 6.86605 54.0039 7.28937H51.9614C51.9614 7.07066 51.919 6.89075 51.8344 6.74964C51.7568 6.60853 51.6404 6.50623 51.4851 6.44273C51.3299 6.37217 51.1429 6.3369 50.9242 6.3369C50.6773 6.3369 50.4762 6.38628 50.321 6.48506C50.1728 6.57678 50.0635 6.71436 49.9929 6.8978C49.9224 7.07419 49.8871 7.28585 49.8871 7.53279V8.13602C49.8871 8.38296 49.9224 8.59462 49.9929 8.77101C50.0705 8.94739 50.1869 9.08497 50.3422 9.18375C50.5044 9.27547 50.7126 9.32133 50.9666 9.32133C51.1994 9.32133 51.3934 9.28958 51.5486 9.22608C51.7109 9.15553 51.8344 9.04969 51.919 8.90859C52.0037 8.76042 52.046 8.57346 52.046 8.34768H54.0039C54.0039 8.77101 53.9228 9.13789 53.7605 9.44832C53.6053 9.75171 53.3866 9.99864 53.1043 10.1891C52.8221 10.3796 52.4941 10.5207 52.1201 10.6125C51.7462 10.7042 51.3476 10.75 50.9242 10.75ZM56.7448 10.75C56.4556 10.75 56.191 10.7218 55.9511 10.6654C55.7112 10.616 55.5031 10.5313 55.3267 10.4114C55.1503 10.2844 55.0127 10.1221 54.914 9.92456C54.8222 9.71996 54.7764 9.47302 54.7764 9.18375C54.7764 8.76748 54.8611 8.42882 55.0304 8.16777C55.2068 7.90672 55.4608 7.70564 55.7924 7.56453C56.124 7.42343 56.5261 7.32818 56.9988 7.27879C57.4786 7.22235 58.0254 7.19413 58.6392 7.19413V6.91897C58.6392 6.76375 58.6004 6.64028 58.5228 6.54856C58.4522 6.44978 58.357 6.3757 58.2371 6.32631C58.1171 6.27693 57.9795 6.25223 57.8243 6.25223C57.7044 6.25223 57.5809 6.26634 57.4539 6.29456C57.3269 6.32279 57.2211 6.37217 57.1364 6.44273C57.0588 6.51328 57.02 6.61206 57.02 6.73905V6.78139H54.9457C54.9387 6.75316 54.9351 6.72847 54.9351 6.7073C54.9351 6.68614 54.9351 6.66144 54.9351 6.63322C54.9351 6.28751 55.0445 5.98765 55.2632 5.73366C55.489 5.47261 55.8171 5.27153 56.2474 5.13042C56.6849 4.98226 57.2211 4.90818 57.8561 4.90818C58.3711 4.90818 58.8473 4.96462 59.2848 5.07751C59.7222 5.1904 60.075 5.38089 60.3431 5.649C60.6112 5.91005 60.7453 6.26987 60.7453 6.72847V8.90859C60.7453 9.02147 60.7735 9.12025 60.8299 9.20491C60.8864 9.28252 60.971 9.32133 61.0839 9.32133H61.4649V10.5384C61.3802 10.5878 61.2391 10.6336 61.0416 10.676C60.8511 10.7254 60.6253 10.75 60.3643 10.75C60.082 10.75 59.8351 10.7218 59.6234 10.6654C59.4118 10.6089 59.2389 10.5278 59.1049 10.422C58.9779 10.3161 58.8897 10.1927 58.8403 10.0516H58.7662C58.618 10.1856 58.4452 10.3056 58.2476 10.4114C58.0571 10.5172 57.8384 10.5984 57.5915 10.6548C57.3446 10.7183 57.0623 10.75 56.7448 10.75ZM57.6021 9.43774C57.7361 9.43774 57.8631 9.4201 57.9831 9.38483C58.1101 9.34249 58.2229 9.28958 58.3217 9.22608C58.4205 9.15553 58.4981 9.07439 58.5546 8.98267C58.611 8.88389 58.6392 8.77806 58.6392 8.66518V8.18894C58.2229 8.18894 57.8843 8.22069 57.6232 8.28418C57.3692 8.34768 57.1823 8.43235 57.0623 8.53818C56.9424 8.64401 56.8824 8.76748 56.8824 8.90859C56.8824 9.04969 56.9177 9.15905 56.9883 9.23666C57.0588 9.31427 57.147 9.36719 57.2528 9.39541C57.3657 9.42363 57.4821 9.43774 57.6021 9.43774ZM64.5233 10.75C64.1423 10.75 63.8037 10.7077 63.5074 10.623C63.2181 10.5313 62.9923 10.3761 62.83 10.1574C62.6678 9.93867 62.5866 9.63882 62.5866 9.25783V6.46389H61.8035V5.03518H62.6713L63.1264 3.34188H64.6927V5.03518H65.878V6.46389H64.6927V8.59109C64.6927 8.83098 64.7315 9.01442 64.8091 9.14141C64.8867 9.26136 65.0454 9.32133 65.2853 9.32133H65.878V10.5595C65.7651 10.5948 65.624 10.6266 65.4546 10.6548C65.2924 10.6901 65.1266 10.7148 64.9572 10.7289C64.795 10.743 64.6503 10.75 64.5233 10.75ZM66.8552 4.37903V2.95031H68.9612V4.37903H66.8552ZM66.8552 10.623V5.03518H68.9612V10.623H66.8552ZM73.1239 10.75C72.4889 10.75 71.9351 10.6442 71.4624 10.4326C70.9967 10.2138 70.6334 9.88929 70.3723 9.45891C70.1113 9.02147 69.9807 8.47821 69.9807 7.82911C69.9807 7.17296 70.1113 6.6297 70.3723 6.19932C70.6334 5.76894 70.9967 5.44792 71.4624 5.23626C71.9351 5.01754 72.4889 4.90818 73.1239 4.90818C73.7589 4.90818 74.3127 5.01754 74.7855 5.23626C75.2582 5.44792 75.625 5.76894 75.8861 6.19932C76.1471 6.6297 76.2777 7.17296 76.2777 7.82911C76.2777 8.47821 76.1471 9.02147 75.8861 9.45891C75.625 9.88929 75.2582 10.2138 74.7855 10.4326C74.3127 10.6442 73.7589 10.75 73.1239 10.75ZM73.1239 9.32133C73.3708 9.32133 73.5719 9.27547 73.7271 9.18375C73.8824 9.08497 73.9952 8.94739 74.0658 8.77101C74.1364 8.59462 74.1716 8.38296 74.1716 8.13602V7.53279C74.1716 7.28585 74.1364 7.07419 74.0658 6.8978C73.9952 6.71436 73.8824 6.57678 73.7271 6.48506C73.5719 6.38628 73.3708 6.3369 73.1239 6.3369C72.877 6.3369 72.6759 6.38628 72.5207 6.48506C72.3725 6.57678 72.2631 6.71436 72.1926 6.8978C72.122 7.07419 72.0868 7.28585 72.0868 7.53279V8.13602C72.0868 8.38296 72.122 8.59462 72.1926 8.77101C72.2631 8.94739 72.3725 9.08497 72.5207 9.18375C72.6759 9.27547 72.877 9.32133 73.1239 9.32133ZM77.2936 10.623V5.03518H79.0186L79.1562 5.88182H79.2303C79.3784 5.66311 79.5513 5.48319 79.7488 5.34209C79.9464 5.19392 80.1651 5.08456 80.405 5.01401C80.6449 4.94346 80.8918 4.90818 81.1458 4.90818C81.5903 4.90818 81.9536 4.99284 82.2359 5.16217C82.5251 5.32445 82.7403 5.5608 82.8814 5.87124C83.0225 6.18168 83.0931 6.55914 83.0931 7.00363V10.623H80.9871V7.25763C80.9871 7.13768 80.9694 7.03185 80.9341 6.94013C80.9059 6.84136 80.8636 6.75669 80.8071 6.68614C80.7507 6.61558 80.6766 6.56267 80.5849 6.52739C80.5002 6.48506 80.3979 6.46389 80.278 6.46389C80.1016 6.46389 79.9464 6.50623 79.8123 6.59089C79.6853 6.6685 79.583 6.77433 79.5054 6.90838C79.4349 7.03538 79.3996 7.18002 79.3996 7.34229V10.623H77.2936Z" fill="white"/>
<defs>
<clipPath id="clip0_2369_703">
<rect width="49.1802" height="49.1802" fill="white" transform="translate(22.4102 16.8086)"/>
</clipPath>
</defs>
</svg>
