<svg width="290" height="61" viewBox="0 0 290 61" fill="none" xmlns="http://www.w3.org/2000/svg">
<mask id="mask0_2369_2780" style="mask-type:luminance" maskUnits="userSpaceOnUse" x="96" y="0" width="194" height="61">
<path d="M96.146 0H290V60.4414H96.146V0Z" fill="white"/>
</mask>
<g mask="url(#mask0_2369_2780)">
<mask id="mask1_2369_2780" style="mask-type:luminance" maskUnits="userSpaceOnUse" x="96" y="0" width="194" height="61">
<path d="M137.156 0H285.062C286.827 0 288.457 0.946553 289.333 2.4835C290.205 4.01723 290.189 5.90071 289.291 7.42162L262.287 53.0198C259.563 57.621 254.615 60.4414 249.269 60.4414H101.363C99.5984 60.4414 97.9652 59.4949 97.0925 57.9611C96.2165 56.4242 96.2325 54.5407 97.1342 53.0198L124.135 7.42162C126.859 2.82041 131.81 0 137.156 0Z" fill="white"/>
</mask>
<g mask="url(#mask1_2369_2780)">
<path d="M92.7383 0H293.687V60.4414H92.7383V0Z" fill="black"/>
</g>
</g>
<path d="M30.4309 21.9169H19.7011V50.2686H10.6399V21.9169H0V14.5884H30.4309V21.9169Z" fill="black"/>
<path d="M40.1596 22.8283V27.4616C42.0913 24.1759 45.0625 22.501 49.0669 22.4304V30.3622C46.5513 30.1312 44.4977 30.5515 42.9063 31.62C41.3148 32.6821 40.3971 34.1966 40.1596 36.1635V50.2687H31.3551V22.8283H40.1596Z" fill="black"/>
<path d="M76.9091 22.8284V50.2688H68.1045V45.7382C66.2371 48.9981 63.2691 50.6281 59.1973 50.6281C56.21 50.6281 53.8228 49.6784 52.0356 47.7789C50.2548 45.8793 49.366 43.3349 49.366 40.1423V22.8284H58.1705V37.6395C58.1705 39.2759 58.5844 40.5594 59.4155 41.4899C60.2529 42.4236 61.3663 42.8889 62.7525 42.8889C64.421 42.8568 65.7301 42.2343 66.6799 41.0279C67.6296 39.8214 68.1045 38.2684 68.1045 36.3689V22.8284H76.9091Z" fill="black"/>
<path d="M93.0452 22.5332C97.794 22.5332 101.362 23.9931 103.749 26.9098C106.143 29.8297 107.189 33.8341 106.881 38.923H87.5905C88.0333 40.5498 88.8162 41.8044 89.9392 42.6835C91.0591 43.5659 92.4324 44.0055 94.0591 44.0055C96.5651 44.0055 98.7566 43.075 100.63 41.2076L105.251 45.7382C102.299 48.9661 98.3106 50.5768 93.2891 50.5768C88.8483 50.5768 85.3092 49.3062 82.6748 46.765C80.047 44.2173 78.7346 40.8354 78.7346 36.6256C78.7346 32.3838 80.047 28.973 82.6748 26.3964C85.3092 23.8231 88.7649 22.5332 93.0452 22.5332ZM87.4365 34.187H98.4358C98.4358 32.5185 97.9512 31.1773 96.9854 30.157C96.0164 29.1398 94.7394 28.6296 93.1479 28.6296C91.6495 28.6296 90.3917 29.1302 89.3745 30.1313C88.3542 31.1324 87.7092 32.4864 87.4365 34.187Z" fill="black"/>
<path d="M116.441 12.3704H130.276C134.332 12.3704 137.476 13.333 139.71 15.2581C141.949 17.1769 143.072 19.9043 143.072 23.4466C143.072 27.1687 141.949 30.0565 139.71 32.11C137.476 34.1635 134.332 35.1903 130.276 35.1903H124.514V44.136H116.441V12.3704ZM124.514 18.7235V28.8372H129.866C131.653 28.8372 133.029 28.4008 133.998 27.528C134.964 26.6489 135.449 25.3782 135.449 23.7162C135.449 22.083 134.964 20.8412 133.998 19.9941C133.029 19.147 131.653 18.7235 129.866 18.7235H124.514Z" fill="#D6D6D6"/>
<path d="M155.642 19.3137C158.995 19.3137 161.601 20.0934 163.458 21.6496C165.323 23.209 166.272 25.3781 166.308 28.1568V44.1359H158.633V41.3251C157.031 43.4396 154.538 44.4952 151.15 44.4952C148.573 44.4952 146.529 43.7861 145.015 42.3647C143.501 40.9465 142.743 39.1015 142.743 36.833C142.743 34.4971 143.552 32.6874 145.169 31.4039C146.793 30.1205 149.116 29.4627 152.138 29.4274H158.594V29.068C158.594 27.8616 158.19 26.9182 157.388 26.2316C156.582 25.5481 155.392 25.2048 153.82 25.2048C151.612 25.2048 149.177 25.8915 146.517 27.2583L144.296 22.086C148.256 20.2378 152.039 19.3137 155.642 19.3137ZM153.55 39.1945C154.789 39.1945 155.876 38.8865 156.81 38.2704C157.75 37.648 158.344 36.833 158.594 35.8319V33.65H153.64C151.278 33.65 150.098 34.5292 150.098 36.2811C150.098 37.1891 150.399 37.9047 151.009 38.4245C151.615 38.9378 152.462 39.1945 153.55 39.1945Z" fill="white"/>
<path d="M177.147 19.6731V23.8058C178.867 20.8731 181.514 19.3747 185.092 19.3137V26.3856C182.849 26.1802 181.014 26.5524 179.586 27.5022C178.164 28.452 177.352 29.8092 177.147 31.5708V44.1359H169.292V19.6731H177.147Z" fill="white"/>
<path d="M200.326 37.3721L201.879 42.814C199.97 43.937 197.788 44.4953 195.333 44.4953C192.911 44.4953 190.95 43.8247 189.455 42.4803C187.957 41.139 187.209 39.2267 187.209 36.7432V25.9364H183.808V20.8026H187.209V14.0002H195.025V20.7641H201.417V25.9364H195.025V35.5111C195.025 36.4544 195.211 37.1411 195.59 37.5774C195.965 38.0138 196.53 38.2192 197.284 38.1935C198.009 38.1935 199.023 37.9208 200.326 37.3721Z" fill="white"/>
<path d="M219.247 19.3137C221.943 19.3137 224.105 20.1704 225.742 21.8806C227.375 23.5844 228.193 25.8594 228.193 28.7087V44.1359H220.39V30.8777C220.39 29.4595 219.998 28.3332 219.222 27.5022C218.452 26.6744 217.402 26.2572 216.077 26.2572C214.682 26.2572 213.536 26.7129 212.638 27.6177C211.746 28.5258 211.229 29.7194 211.085 31.1986V44.1359H203.23V19.6731H211.085V23.6647C212.804 20.825 215.525 19.3747 219.247 19.3137Z" fill="white"/>
<path d="M241.882 19.4038C246.124 19.4038 249.314 20.7065 251.444 23.3055C253.575 25.9077 254.502 29.4758 254.229 34.0096H237.031C237.422 35.4663 238.116 36.5861 239.11 37.3723C240.111 38.1616 241.337 38.5531 242.794 38.5531C245.033 38.5531 246.984 37.7252 248.646 36.0631L252.779 40.0932C250.142 42.9682 246.586 44.4056 242.113 44.4056C238.151 44.4056 234.997 43.273 232.654 41.0045C230.309 38.7392 229.138 35.7262 229.138 31.9689C229.138 28.1891 230.309 25.1505 232.654 22.8563C234.997 20.5557 238.074 19.4038 241.882 19.4038ZM236.903 29.7998H246.695C246.695 28.311 246.262 27.1142 245.399 26.2062C244.542 25.3013 243.403 24.8457 241.985 24.8457C240.65 24.8457 239.527 25.2949 238.622 26.1933C237.714 27.0853 237.14 28.2854 236.903 29.7998Z" fill="white"/>
<path d="M263.761 19.6731V23.8058C265.48 20.8731 268.128 19.3747 271.705 19.3137V26.3856C269.462 26.1802 267.627 26.5524 266.199 27.5022C264.778 28.452 263.966 29.8092 263.761 31.5708V44.1359H255.906V19.6731H263.761Z" fill="white"/>
</svg>
